<svg version="1.0" xmlns="http://www.w3.org/2000/svg" width="51" height="39" viewBox="0 0 512 512"><path d="M174.1 143.4c-3.3 1.8-5 5.3-5.1 10.4 0 5.3 2 9.4 5.5 11 1.7.8 8.4 1.2 19 1.2H210v14.8l-18.2.4c-15.4.3-18.9.6-21.8 2.2-7.3 3.9-11.3 9.4-12.5 17.8l-.7 4.6-14.8.4c-14.6.3-14.9.3-19.1 3.3-7.5 5.3-8.4 8.3-8.7 29.2l-.3 18.3H99v-46.8l-2.6-3.1c-4.8-5.7-15.6-5.1-19.5 1.2-1.9 3.1-1.9 5.1-1.7 68l.3 64.9 3.3 2.9c2.7 2.5 4.1 2.9 8.8 2.9 4.8 0 5.9-.4 8.5-2.9l2.9-2.9V294h15v16.2c0 18.4.8 22.3 5.3 27.5 5.1 5.8 7.4 6.3 28.5 6.3h18.9l.6 5.8c.5 6.6 2.2 10.4 6.4 14.6 6.2 6.3 3 6.1 79.2 6.4 49.5.2 71.1-.1 75-.9 4.6-.9 6.5-2 10.2-5.8 4.9-4.8 6.9-9.6 6.9-16.4V344h7c7.2 0 12.9-1.7 16.3-4.8 2.8-2.5 5.7-8.7 5.7-12.2v-3h23v26h11.8c14 0 18.1-1 23.2-5.6 7.3-6.6 7.1-4.8 6.8-71.1l-.3-59.1-3-4.4c-1.7-2.3-5.1-5.4-7.5-6.8-4.1-2.2-5.8-2.5-17.7-2.8l-13.3-.4V226h-23v-2.5c0-6.6-6.6-14.4-13.7-16.4-2.1-.6-11.1-1.1-19.9-1.1h-16.2l-.4-5.4c-.6-7-4.2-12.6-10.5-16.3-4.8-2.8-4.9-2.8-25-3.1l-20.3-.4v-14.7l19.5-.3 19.5-.3 2.7-2.8c2.4-2.4 2.8-3.5 2.8-8.8 0-5.6-.3-6.3-3.3-9L306 142h-64.8c-51.8.1-65.2.3-67.1 1.4zm34 69.8c.7 1.3 1.7 2.6 2.3 3 2.1 1.5 6.6.8 8.3-1.2 2.1-2.4 4.1-2.5 7.1-.4 1.4.9 2.2 2.6 2.2 4.3 0 3.9 2.4 5.6 7.9 5.6 3.9 0 4.7.4 6 2.7 1.3 2.3 1.3 3 .1 5.2-1.8 3.6 0 7.3 4.5 9.2 3 1.2 3.5 1.9 3.5 4.8 0 2.5-.7 3.8-2.5 5-3.1 2.1-3.4 7-.5 10.1 1.7 1.8 1.9 2.6.9 5.3-.9 2.8-1.6 3.2-4.5 3.2-2.8 0-3.8.6-5.4 3.2-1.1 1.8-1.7 4-1.4 4.8 1.2 3 .9 4.3-1.9 6.3-2.1 1.6-3 1.8-3.9.9-2.9-2.9-10.8-.1-10.8 3.8 0 4.2-7.4 5.4-9.2 1.5-1.6-3.6-7.1-4.5-10.2-1.6-2.7 2.5-4.4 2.6-7.5.5-1.5-1.1-2.1-2.3-1.8-3.6.4-1.3-.3-2.9-1.9-4.5-2.1-2.1-3.1-2.4-6.4-1.8-3.4.6-4 .4-5.6-2-1.4-2.2-1.5-3.1-.6-4.6 2.6-4.2.3-9.2-4.8-10.2-2.7-.6-3-1-3-4.5 0-3.2.5-4.1 2.5-5 1.4-.6 2.5-1.8 2.5-2.6s.2-2.1.5-2.8c.3-.8-.5-2.7-1.7-4.3-3.6-4.7-2-9.2 3.5-9.7 3.8-.4 7.5-5.6 5.9-8.5-1.2-2.1 0-4.8 2.8-6.3 1.5-.8 2.6-.7 4.3.5 3.6 2.3 9.7-.7 9.7-4.7 0-3.7 7.3-5 9.1-1.6zm75.4 44.2c2 4.8 7.9 6.3 11.6 3 1.3-1.2 2.2-1.3 3.7-.5 3.9 2.1 5.2 4 4.5 7.2-.8 4 2.7 7.9 7.3 7.9 3.4 0 4.7 1.1 5.9 4.8.5 1.7.1 3-1.5 4.7-3 3.2-2 8 2.1 10.4 1.6.9 3.1 2.3 3.4 3.3 1 3-.6 6.8-3.1 7.4-4.7 1.2-7.3 8.6-3.9 11.4 2 1.7 1.9 3.2-.6 6.4-1.7 2.2-2.6 2.5-5.7 2s-4.1-.2-6.1 2c-1.7 1.8-2.2 3.2-1.7 5 1.2 5-5.4 8.1-10.1 4.7-3.4-2.5-8.2-1.7-9.9 1.8-1.9 3.8-3.1 4.4-6.7 3.7-2.8-.5-3.6-1.2-4-3.4-.9-4.4-8.1-6.9-10.7-3.7-1.7 2-4 1.9-6.9-.4-1.9-1.5-2.3-2.4-1.8-4.9.9-4.4-3.4-9.6-7.4-8.8-4.8.9-8.5-5.7-4.9-8.9 3.6-3.2 2.1-9.8-2.6-11.5-2.2-.9-2.5-1.5-2.2-5.2.2-3.6.7-4.4 2.5-4.6 4.8-.7 6.7-7.1 3.6-11.8-1.5-2.4-1.5-2.7.4-5.2 1.6-2.2 2.8-2.7 6.1-2.7 5.4 0 8.2-2.6 8.2-7.7 0-3.4.4-4 3.5-5.5 3.4-1.6 3.6-1.6 5.5.5 3.4 3.6 10.3 2.3 11.4-2.2.6-2.3 1.2-2.6 4.7-2.6 3.6 0 4.1.3 5.4 3.4z"/><path d="M203 238.8c-8 4-10.8 15.7-5.4 22.2 7.2 8.4 18 7.9 24.8-1.2 1.4-1.9 2-4.3 2-7.8 0-11.1-11.5-18.2-21.4-13.2zM270 283.1c-8.5 3.4-12.4 13.9-8.4 22.5 5.6 11.7 23 11.8 29 .1 2.3-4.4 2.1-11.9-.4-15.9-4-6.4-13.2-9.5-20.2-6.7z"/></svg>