<?xml version="1.0" encoding="utf-8"?>
<!-- Svg Vector Icons : http://www.onlinewebfonts.com/icon -->
<!DOCTYPE svg PUBLIC "-//W3C//DTD SVG 1.1//EN" "http://www.w3.org/Graphics/SVG/1.1/DTD/svg11.dtd">
<svg version="1.1" xmlns="http://www.w3.org/2000/svg" xmlns:xlink="http://www.w3.org/1999/xlink" x="0px" y="0px" viewBox="0 0 1000 1000" enable-background="new 0 0 1000 1000" xml:space="preserve">
<metadata> Svg Vector Icons : http://www.onlinewebfonts.com/icon </metadata>
<g><g><g><path d="M973.9,417.6h-21.5c-8.9,0-16.1,7.2-16.1,16.1v279.6c0,8.9,7.2,16.1,16.1,16.1h21.5c8.9,0,16.1-7.2,16.1-16.1V433.7C990,424.8,982.8,417.6,973.9,417.6z"/><path d="M26.1,404c-8.9,0-16.1,7.2-16.1,16.1V727c0,8.9,7.2,16.1,16.1,16.1h43.8c8.9,0,16.1-7.2,16.1-16.1V420.2c0-8.9-7.2-16.1-16.1-16.1L26.1,404L26.1,404z"/><path d="M637.8,792.2c35.9-13.9,71.6-28.3,107.4-42.2c3.2-1.2,6.9-1.7,10.3-1.7c26.5-0.1,53-0.1,79.4-0.1c27.5,0,45.1-17.7,45.1-45.4v-90.8c0-6.5,5.2-11.7,11.6-11.7l11.4-0.3c9.1,0,9.6-3.5,9.9-9.8l0.2-52.7c0-5.2-4.2-9.5-9.5-9.5h-12.3c-6.5,0-11.8-5.3-11.8-11.8l0.4-110.1c0.3-16.3-6.3-27.5-18.8-36.5c-21.5-15.5-84.7-60.3-95-66.9c-7.1-4.6-14.9-6.5-23.5-6.4l-109-0.1c-9.3,0-16.8-7.5-16.8-16.8V276c0-9.4,7.6-17,17-17h98.8c9.4,0,17-7.6,17-17v-19.7c0-9.4-7.6-17-17-17H404.7c-9.4,0-17,7.6-17,17v19.7c0,9.4,7.6,17,17,17h107c9.4,0,17,7.6,17,17v3.9c0,9.3-7.5,16.9-17,16.8l-108-0.4c-20.6-0.6-37.5,6.4-53.2,17.7c-22.9,16.6-45.4,33.7-67.9,50.9c-5.7,4.3-12.8,6.7-19.9,6.6c-21.6-0.2-43.3-0.2-65,0c-26.9,0.2-44.3,17.5-44.6,44.6l0.3,75.2c0,6.4-5.2,11.6-11.7,11.6h-10.1c-12.3,0-22.2,9.9-22.2,22.2v119.1c0,12.3,9.9,22.2,22.2,22.2h9.8c6.4,0,11.7,5.2,11.7,11.7c0,17.1-0.1,49,0,67.4c0,17.1-0.3,49.3,31.1,49.3h439.9C628.7,794.8,633.6,793.9,637.8,792.2z"/></g></g><g></g><g></g><g></g><g></g><g></g><g></g><g></g><g></g><g></g><g></g><g></g><g></g><g></g><g></g><g></g></g>
</svg>