<?xml version="1.0" encoding="utf-8"?>
<!-- Svg Vector Icons : http://www.onlinewebfonts.com/icon -->
<!DOCTYPE svg PUBLIC "-//W3C//DTD SVG 1.1//EN" "http://www.w3.org/Graphics/SVG/1.1/DTD/svg11.dtd">
<svg version="1.1" xmlns="http://www.w3.org/2000/svg" xmlns:xlink="http://www.w3.org/1999/xlink" x="0px" y="0px" viewBox="0 0 1000 1000" enable-background="new 0 0 1000 1000" xml:space="preserve">
<metadata> Svg Vector Icons : http://www.onlinewebfonts.com/icon </metadata>
<g><path d="M981.6,422.1L500,144.1L18.4,422.1c-8,4.6-10.8,14.9-6.1,22.9c4.6,8,14.9,10.8,22.9,6.1l65.8-38v397.6c0,24.9,20.2,45.1,45.1,45.1h708c24.9,0,45.1-20.2,45.1-45.1V413.2l65.8,38c2.6,1.5,5.5,2.2,8.4,2.2c5.8,0,11.4-3,14.5-8.4C992.4,437,989.6,426.8,981.6,422.1L981.6,422.1z M729.5,536.2h-459v-56.1c0-2.9,1.4-4.5,1.5-4.7l455.7-0.1c0.5,0.2,1.8,1.8,1.8,4.7V536.2L729.5,536.2z M270.5,569.7h459v56.9h-459V569.7z M270.5,660.2h459v56.9h-459V660.2z M270.5,750.6h459v71.7h-459V750.6z M865.5,810.8c0,6.4-5.2,11.5-11.5,11.5h-91V480.1c0-21.1-15.7-38.2-35-38.2H271.9c-19.3,0-35,17.1-35,38.2v342.3h-91c-6.4,0-11.5-5.2-11.5-11.5v-417l365.5-211l365.5,211V810.8L865.5,810.8z"/></g>
</svg>