<svg version="1.0" xmlns="http://www.w3.org/2000/svg" width="50" height="39" viewBox="0 0 820 791"><path d="M392.7 42c-8.4 1.5-18.9 5-25.7 8.6-10.4 5.5-35.9 24.5-217 161.5-29.4 22.3-64.5 48.8-78 58.9-28.6 21.4-55.3 42.3-59.2 46.1-3.3 3.2-3.7 8.2-1.1 13.6 2.3 5 6.7 7.5 12.1 7 4.7-.5 7.3-2 24.8-14.8 6.7-4.9 12.7-8.9 13.3-8.9.8 0 1.1 6.2 1.1 20.3v20.2l-8.6 6.5c-10.9 8.2-22.1 20-25.7 27.1-3.9 7.8-4.8 15-3.8 30.9l.9 13.5L22 440c-8.2 16.3-12.7 34.4-11.6 45.7 1.1 10.2 4.3 21.3 9.2 31.1l4.7 9.3-.7 13.8c-.8 15.6.2 25.6 4 40.1 5.5 20.9 13.2 31 27.2 35.4l7.7 2.4.3 20 .2 20-19.8.3c-22.3.4-22.8.6-28.3 8.2-3.1 4.1-3.1 4.3-2.5 13.2.9 14.8 8 63.2 11.7 80.4.7 3.2 2.2 6.5 3.9 8.5l2.8 3.1 329.9.3c184.3.2 338.5-.1 349.5-.6 19-.9 19.8-1 24.4-3.7 7.3-4.3 14.1-11.1 18-18l3.4-6.2.1-99.4c.2-154.5 1.3-328.7 2.1-329.4.4-.4 6.2 3.3 13 8.2 6.8 5 14.2 10.3 16.5 11.8 5.6 3.6 11.8 4.3 15.9 1.7 5.2-3.3 8-12.3 5.4-17.1-1.3-2.5-23.9-20-110.2-85.3-40.9-30.9-95.4-72.2-121.3-91.8-116-87.9-123.5-93-142-98-8.9-2.4-34.1-3.6-42.8-2zm32.4 26.1c7.6 1.6 18.3 6.3 24.2 10.6 17.3 12.5 154 116.5 181.7 138.2 10.2 8.1 36.6 28.1 58.7 44.6l40.2 30v11.9c.1 10.2-.1 11.7-1.4 11.2-.9-.3-37.2-27.7-80.8-60.8-93.6-71.2-182.7-138.2-198.5-149.2-16.5-11.4-18.2-12-38.2-12.1-20.5 0-23.1.8-39.5 11.8-18.3 12.5-95.7 70.8-257.7 193.9-12.1 9.3-22.4 16.8-22.9 16.8s-.9-5.3-.9-11.8c0-10.1.2-11.9 1.8-12.8.9-.6 32.3-24.4 69.7-52.9C329.8 109.2 372 77.4 378.6 73.8c8.1-4.4 18.4-6.7 30.6-6.7 5.9-.1 13 .4 15.9 1zm-4.3 50.4c3.8 1.2 11.2 6.1 28.9 19.2 27 20 115.3 86.6 193.8 146.3 29.2 22.1 60.5 45.9 69.8 52.9l16.7 12.6-.2 194.5c-.2 155.2-.6 194.9-1.6 196.7-2.5 4.5-4.2 4.7-35.4 5.1l-29.8.4v-392l-4.7-4.1-4.8-4.1H178.9l-4.5 3.7-4.4 3.7V519c0 91-.3 179.3-.7 196.3l-.6 30.7h-17.9c-9.8 0-17.8-.3-17.8-.8-.1-.4 2.3-16.6 5.2-36l5.2-35.3-2.3-4.5c-3.4-6.3-8-10-14.1-11.3-2.8-.6-12.3-1.1-21-1.1H90v-44.9l6.2-3.7c18.4-10.7 32.1-27.2 38.4-45.9 2.4-7.3 2.6-9 2.2-20-.4-9.6-1-13.6-3.1-19.8-1.5-4.2-2.7-9.3-2.7-11.1 0-2.1 2.5-8.4 6.9-17.2 3.7-7.7 8.1-17.5 9.7-21.9 2.6-7.3 2.9-9.2 2.9-21.5v-13.5l-5.4-10.9-5.4-10.8-.7-15.4c-.7-14.5-.9-15.7-3.9-21.8-5.5-11.2-21.1-23.6-34.9-27.7-2.3-.7-4.2-1.8-4.2-2.5 0-2.4 15.1-14.4 87.5-69.5 133.3-101.5 200.9-152.6 206.7-156.2 8.9-5.5 20.6-7.1 30.6-4.2zm215.2 273V411H196v-16.4c0-9.1.4-17.6 1-19l.9-2.6 76.3-.3c42-.1 140.5-.3 219.1-.5L636 372v19.5zm-542.5-14c7.5 2 12.9 5.7 16.1 11 2.2 3.8 2.4 5.3 2.4 16.1 0 14.3 1.4 20.3 7.2 31.5 4 7.5 4.3 8.7 4.2 15.7 0 9.7-1.8 15.1-10.4 31.9-3.9 7.5-7.4 15.7-8 19-1.7 7.8-.7 18.1 2.5 27.8 4.6 13.6 2.4 26.5-6.7 39.1-5.7 8-23.1 19.2-32.4 21-4.7.9-9-1.8-11.8-7.4-4.2-8.2-5.7-17.9-6.2-40.2-.3-11.3-1-22.5-1.5-25-.6-2.5-3.3-9-6-14.5l-5-10v-26l7-14.2 7.1-14.2v-41.4l3.6-3.4c4.7-4.4 18-14.5 21.9-16.6 3.8-2.1 8.5-2.1 16-.2zm542.5 82V479H196v-39h440v19.5zm0 67V546H196v-39h440v19.5zm0 65V611H196v-16.4c0-9.1.4-17.6 1-19l.9-2.6 60.8-.3c33.5-.1 132-.3 219.1-.5L636 572v19.5zm0 68V679l-219.7-.2-219.8-.3-.3-19.3-.2-19.2h440v19.5zm-522.3 28.2c-.3 1.6-2.2 14.3-4.2 28.3s-4 26.2-4.4 27c-.5.9-3 1.7-6.7 2.1-9.3 1.1-49.2 1-49.8 0-.6-1-8.6-54.1-8.6-57.2 0-1.2.9-1.9 2.8-2.2 1.5-.2 18.2-.5 37.1-.6l34.4-.1-.6 2.7zM636 726.5V746l-219.2-.6c-120.6-.4-219.4-.8-219.6-.9-.2-.2-.6-8.7-.9-18.9l-.6-18.6H636v19.5z"/></svg>