<?xml version="1.0" encoding="utf-8"?>
<!-- Svg Vector Icons : http://www.onlinewebfonts.com/icon -->
<!DOCTYPE svg PUBLIC "-//W3C//DTD SVG 1.1//EN" "http://www.w3.org/Graphics/SVG/1.1/DTD/svg11.dtd">
<svg version="1.1" xmlns="http://www.w3.org/2000/svg" xmlns:xlink="http://www.w3.org/1999/xlink" x="0px" y="0px" viewBox="0 0 1000 1000" enable-background="new 0 0 1000 1000" xml:space="preserve">
<metadata> Svg Vector Icons : http://www.onlinewebfonts.com/icon </metadata>
<g><g transform="translate(0.000000,511.000000) scale(0.100000,-0.100000)"><path d="M1804.6,4942.2C1766.2,4750.2,100-4732.4,100-4760.6c0-25.6,53.7-30.7,209.9-25.6l212.4,7.7L1369.5,33.2c468.4,2646.4,854.8,4850.1,862.5,4896.2l15.4,81.9h-215C1819.9,5011.3,1819.9,5011.3,1804.6,4942.2z"/><path d="M7752.6,4980.6c0-17.9,386.5-2219,857.4-4891C9081-2582.5,9467.5-4773.4,9467.5-4781c0-5.1,97.2-10.2,215-10.2H9900l-15.4,81.9c-7.7,46.1-394.1,2249.7-862.5,4896.2l-847.2,4811.7l-212.4,7.7C7803.8,5011.3,7752.6,5006.1,7752.6,4980.6z"/><path d="M4783.7,4217.9V3706h204.8h204.8v511.9v511.9h-204.8h-204.8V4217.9z"/><path d="M4783.7,2170.3v-511.9h204.8h204.8v511.9v511.9h-204.8h-204.8V2170.3z"/><path d="M4783.7,122.8v-511.9h204.8h204.8v511.9v511.9h-204.8h-204.8V122.8z"/><path d="M4783.7-1924.7v-511.9h204.8h204.8v511.9v511.9h-204.8h-204.8V-1924.7z"/><path d="M4783.7-3972.3v-511.9h204.8h204.8v511.9v511.9h-204.8h-204.8V-3972.3z"/></g></g>
</svg>